<svg width="495" height="220" viewBox="0 0 495 220" fill="none" xmlns="http://www.w3.org/2000/svg"><defs><linearGradient id="bg" x1="0" y1="0" x2="100%" y2="100%"><stop stop-color="#020617"/><stop offset="1" stop-color="#0f172a"/></linearGradient><style>.title{font:800 22px ui-sans-serif,system-ui;fill:#34d399}.label{font:600 14px ui-sans-serif,system-ui;fill:#cbd5e1}.value{font:800 28px ui-sans-serif,system-ui;fill:#f8fafc}.mono{font:600 12px ui-monospace,monospace;fill:#99f6e4}.muted{fill:#64748b}.bar{animation:grow 2s ease-out infinite alternate;transform-origin:left}.pulse{animation:pulse 1.8s ease-in-out infinite}@keyframes grow{from{transform:scaleX(.25);opacity:.55}to{transform:scaleX(1);opacity:1}}@keyframes pulse{0%,100%{opacity:.35}50%{opacity:1}}</style></defs><rect width="495" height="220" rx="16" fill="url(#bg)" stroke="#164e63"/><text class="title" x="24" y="38">Most Used Languages</text><text class="label" x="24" y="66">Python</text><rect x="150" y="53" width="260" height="10" rx="5" fill="#34d399" class="bar"/><text class="mono" x="425" y="66">32</text><text class="label" x="24" y="90">TypeScript</text><rect x="150" y="77" width="113" height="10" rx="5" fill="#38bdf8" class="bar"/><text class="mono" x="425" y="90">14</text><text class="label" x="24" y="114">Other</text><rect x="150" y="101" width="105" height="10" rx="5" fill="#a78bfa" class="bar"/><text class="mono" x="425" y="114">13</text><text class="label" x="24" y="138">JavaScript</text><rect x="150" y="125" width="48" height="10" rx="5" fill="#f59e0b" class="bar"/><text class="mono" x="425" y="138">6</text><text class="label" x="24" y="162">Go</text><rect x="150" y="149" width="32" height="10" rx="5" fill="#fb7185" class="bar"/><text class="mono" x="425" y="162">4</text><text class="label" x="24" y="186">Rust</text><rect x="150" y="173" width="24" height="10" rx="5" fill="#22c55e" class="bar"/><text class="mono" x="425" y="186">3</text><text class="mono" x="24" y="202">by repository primary language, from GitHub API</text></svg>