<svg width="1200" height="360" viewBox="0 0 1200 360" fill="none" xmlns="http://www.w3.org/2000/svg">
<defs><linearGradient id="g" x1="0" y1="0" x2="1200" y2="360"><stop stop-color="#020617"/><stop offset=".55" stop-color="#052e2b"/><stop offset="1" stop-color="#0f172a"/></linearGradient><style>.card{fill:#07111f;stroke:#164e63}.h{font:800 24px ui-sans-serif,system-ui;fill:#f8fafc}.k{font:600 13px ui-monospace,monospace;fill:#99f6e4}.v{font:800 44px ui-sans-serif,system-ui;fill:#34d399}.s{font:600 14px ui-sans-serif,system-ui;fill:#cbd5e1}.bar{fill:#34d399;animation:grow 2.4s ease-out infinite alternate;transform-origin:bottom}.bar2{fill:#38bdf8;animation:grow 2.8s ease-out infinite alternate;transform-origin:bottom}.line{stroke:#34d399;stroke-width:3;fill:none;stroke-dasharray:700;stroke-dashoffset:700;animation:draw 4s ease-in-out infinite alternate}.dot{fill:#38bdf8;animation:pulse 1.8s ease-in-out infinite}@keyframes grow{from{transform:scaleY(.25);opacity:.55}to{transform:scaleY(1);opacity:1}}@keyframes draw{to{stroke-dashoffset:0}}@keyframes pulse{0%,100%{opacity:.35;r:4}50%{opacity:1;r:8}}</style></defs>
<rect width="1200" height="360" rx="30" fill="url(#g)"/>
<text class="h" x="42" y="52">GitHub signal</text><text class="k" x="42" y="78">local animated stats · no external stat service</text>
<g transform="translate(42 110)"><rect class="card" width="250" height="190" rx="24"/><text class="k" x="24" y="38">PUBLIC REPOS</text><text class="v" x="24" y="96">50+</text><text class="s" x="24" y="135">AI systems, agents, ML, UI</text></g>
<g transform="translate(322 110)"><rect class="card" width="250" height="190" rx="24"/><text class="k" x="24" y="38">MAIN LANGUAGES</text><text class="v" x="24" y="96">5</text><text class="s" x="24" y="135">Python · TS · Rust · Go · C</text></g>
<g transform="translate(602 110)"><rect class="card" width="250" height="190" rx="24"/><text class="k" x="24" y="38">BUILD AREAS</text><text class="v" x="24" y="96">4</text><text class="s" x="24" y="135">Agents · ML · Backend · UI</text></g>
<g transform="translate(882 110)"><rect class="card" width="250" height="190" rx="24"/><text class="k" x="24" y="38">FEATURED SYSTEM</text><text class="v" x="24" y="96">RF</text><text class="s" x="24" y="135">WorldPose sensing platform</text></g>
<g transform="translate(72 318)"><rect class="bar" x="0" y="-80" width="18" height="80" rx="7"/><rect class="bar2" x="34" y="-115" width="18" height="115" rx="7" style="animation-delay:.2s"/><rect class="bar" x="68" y="-60" width="18" height="60" rx="7" style="animation-delay:.4s"/><rect class="bar2" x="102" y="-138" width="18" height="138" rx="7" style="animation-delay:.6s"/><rect class="bar" x="136" y="-96" width="18" height="96" rx="7" style="animation-delay:.8s"/></g>
<path class="line" d="M650 318C700 250 750 280 800 220S900 270 950 190S1040 210 1120 150"/><circle class="dot" cx="650" cy="318" r="5"/><circle class="dot" cx="800" cy="220" r="5" style="animation-delay:.4s"/><circle class="dot" cx="950" cy="190" r="5" style="animation-delay:.8s"/><circle class="dot" cx="1120" cy="150" r="5" style="animation-delay:1.2s"/>
</svg>
