<svg width="1200" height="360" viewBox="0 0 1200 360" fill="none" xmlns="http://www.w3.org/2000/svg">
<defs><linearGradient id="g" x1="0" y1="0" x2="1200" y2="360"><stop stop-color="#020617"/><stop offset=".55" stop-color="#052e2b"/><stop offset="1" stop-color="#0f172a"/></linearGradient><style>.card{fill:#07111f;stroke:#164e63}.h{font:800 24px ui-sans-serif,system-ui;fill:#f8fafc}.k{font:600 12px ui-monospace,monospace;fill:#99f6e4}.v{font:800 42px ui-sans-serif,system-ui;fill:#34d399}.s{font:600 14px ui-sans-serif,system-ui;fill:#cbd5e1}.bar{animation:grow 2.4s ease-out infinite alternate;transform-origin:bottom}.line{stroke:#34d399;stroke-width:3;fill:none;stroke-dasharray:700;stroke-dashoffset:700;animation:draw 4s ease-in-out infinite alternate}.dot{fill:#38bdf8;animation:pulse 1.8s ease-in-out infinite}@keyframes grow{from{transform:scaleY(.25);opacity:.55}to{transform:scaleY(1);opacity:1}}@keyframes draw{to{stroke-dashoffset:0}}@keyframes pulse{0%,100%{opacity:.35;r:4}50%{opacity:1;r:8}}</style></defs>
<rect width="1200" height="360" rx="30" fill="url(#g)"/>
<text class="h" x="42" y="52">GitHub signal</text><text class="k" x="42" y="78">real data from GitHub API · generated into local SVG</text>
<g transform="translate(42 106)"><rect class="card" width="250" height="132" rx="24"/><text class="k" x="24" y="36">PUBLIC REPOS</text><text class="v" x="24" y="92">106</text></g>
<g transform="translate(322 106)"><rect class="card" width="250" height="132" rx="24"/><text class="k" x="24" y="36">FOLLOWERS</text><text class="v" x="24" y="92">2</text></g>
<g transform="translate(602 106)"><rect class="card" width="250" height="132" rx="24"/><text class="k" x="24" y="36">TOTAL STARS</text><text class="v" x="24" y="92">1</text></g>
<g transform="translate(882 106)"><rect class="card" width="250" height="132" rx="24"/><text class="k" x="24" y="36">TOTAL FORKS</text><text class="v" x="24" y="92">0</text></g>
<text class="k" x="42" y="268">TOP LANGUAGES BY REPOSITORY COUNT</text>
<rect class="bar" x="70" y="150" width="28" height="140" rx="9" fill="#34d399" style="animation-delay:0.0s"/><text class="k" x="62" y="318">Python</text><rect class="bar" x="122" y="208" width="28" height="82" rx="9" fill="#38bdf8" style="animation-delay:0.18s"/><text class="k" x="114" y="318">Other</text><rect class="bar" x="174" y="208" width="28" height="82" rx="9" fill="#a78bfa" style="animation-delay:0.36s"/><text class="k" x="166" y="318">TypeSc</text><rect class="bar" x="226" y="235" width="28" height="55" rx="9" fill="#f59e0b" style="animation-delay:0.54s"/><text class="k" x="218" y="318">JavaSc</text><rect class="bar" x="278" y="242" width="28" height="48" rx="9" fill="#fb7185" style="animation-delay:0.72s"/><text class="k" x="270" y="318">Go</text>
<path class="line" d="M610 305C680 240 745 270 810 218S925 248 990 190S1080 205 1140 150"/><circle class="dot" cx="610" cy="305" r="5"/><circle class="dot" cx="810" cy="218" r="5" style="animation-delay:.4s"/><circle class="dot" cx="990" cy="190" r="5" style="animation-delay:.8s"/><circle class="dot" cx="1140" cy="150" r="5" style="animation-delay:1.2s"/>
<text class="s" x="602" y="268">Recent pushes: tientruongminh · rf-worldpose · omi_FE · flowboard</text>
<text class="k" x="602" y="330">Languages: Python 31 · Other 14 · TypeScript 14 · JavaScript 6 · Go 4</text>
</svg>